<svg xmlns="http://www.w3.org/2000/svg" width="516.565" height="261.636" viewBox="0 0 516.565 261.636">
  <g id="Group_14" data-name="Group 14" transform="translate(-99.728 -3.757)">
    <g id="Group_12" data-name="Group 12" transform="translate(99.728 3.757)">
      <path id="Path_195" data-name="Path 195" d="M285.491,80.863l-.329-2.435a.363.363,0,0,0-.378-.313l-2.456.133c-.082,0-.17-.007-.257-.013a4.02,4.02,0,0,0-3.462,1.17c-.859.98-2.057,1.237-4.1,1.607-.476.086-.956.173-1.434.274l-.294.372.115,5.933c.525-.13,1.049-.252,1.577-.36.375-.078.751-.146,1.123-.213a21.237,21.237,0,0,0,3.537-.861.367.367,0,0,1,.5.37,12.524,12.524,0,0,1-1.218,4.36c-.892,1.826-1.694,3.7-2.469,5.509a74.67,74.67,0,0,1-3.706,7.791.564.564,0,0,1-.033.048l-5.081,6.5c-.029.037-.066.081-.092.115-.066.085-7.68,6.194-10.612,9.663l-1.065,1.255c-.941,1.1-1.934,2.145-2.985,3.253-.959,1.01-1.949,2.056-2.9,3.144a6.014,6.014,0,0,0-1.189,2.416,3.548,3.548,0,0,1-.124.4c-.543,1.132-1.1,2.257-1.658,3.383-.621,1.253-1.241,2.505-1.846,3.769-1.367,2.863-.487,4.392.494,5.173.528.419.621.7.421,2.727a11.43,11.43,0,0,0,.161,4.326c.092.333.159.676.226,1.016a7.986,7.986,0,0,0,2.968,5.411l.029,1.387c.068,3.134.137,6.373.037,9.514-.042,1.312-.872,2.557-2.693,4.038a10.118,10.118,0,0,1-2.044,1.1,17.973,17.973,0,0,0-2.734,1.45c-2.037,1.384-4,2.877-5.9,4.32-.752.572-1.5,1.143-2.262,1.71-.125.1-.262.183-.4.272a6.97,6.97,0,0,0-2.053,1.861c-.94,1.377-2.086,3.439-1.152,5.426,1.156,2.471,1.289,5.129,1.051,8.52a.378.378,0,0,1-.2.31,27.062,27.062,0,0,1-3.782,1.578,5.594,5.594,0,0,0-4.313,5.776,7.759,7.759,0,0,1-3.164,6.654,7.677,7.677,0,0,0-2.246,2.311c-2.341,4.1-5.933,7.005-10.6,10.1a12.982,12.982,0,0,1-7.935,1.806,15.3,15.3,0,0,0-3.519.345,9.443,9.443,0,0,1-2.172.251,10.825,10.825,0,0,0-3.853.579c-1.77.51-2.021.5-2.672-.089a3.84,3.84,0,0,1-.333-.666c-.078-.179-.169-.385-.278-.61a4.741,4.741,0,0,0,.294-.693,6.011,6.011,0,0,0-.714-4.747c-.479-.875-.921-1.772-1.364-2.667-.611-1.237-1.244-2.515-1.979-3.769a19.716,19.716,0,0,0-1.733-2.4,15.531,15.531,0,0,1-1.189-1.606l-.445-.735a22.889,22.889,0,0,1-2.4-4.679c-.866-2.724-1.763-5.542-1.679-8.061.118-3.612-1.4-5.958-2.733-8.027l-.17-.264a75.392,75.392,0,0,1-5.418-9.346,6.466,6.466,0,0,1,0-3.532c.559-2.38,1.351-4.706,2.19-7.17.159-.466.313-.933.47-1.4a.331.331,0,0,1,.049-.1l40.629-56.854a.359.359,0,0,0-.084-.5l-4.378-3.128a.361.361,0,0,0-.5.084l-42.259,59.134a5.936,5.936,0,0,0-1.046,2.6c-.249,1.711-.679,4.528-1.008,5.93-.308,1.312-.886,4.665.383,7.455a80.521,80.521,0,0,0,5.87,10.167l.147.226c1.227,1.9,1.813,2.883,1.759,4.515-.117,3.569.989,7.046,1.965,10.113a27.812,27.812,0,0,0,3,6l.431.711a20.672,20.672,0,0,0,1.663,2.285,14.9,14.9,0,0,1,1.222,1.661c.626,1.068,1.183,2.2,1.773,3.39.428.865.858,1.73,1.313,2.579a.341.341,0,0,1,.04.14l.4,5.326c.056.115.127.277.183.406a7.51,7.51,0,0,0,1.829,2.749,7.257,7.257,0,0,0,5.032,2.034,12.1,12.1,0,0,0,3.429-.6,6.465,6.465,0,0,1,1.734-.356,14.443,14.443,0,0,0,3.7-.333,9.95,9.95,0,0,1,2.125-.254,18.888,18.888,0,0,0,11.605-2.814c4.672-3.1,9.423-6.713,12.479-12.081a6.79,6.79,0,0,1,.728-.587,13.752,13.752,0,0,0,5.537-11.177l.239-.329a32.761,32.761,0,0,0,5.021-2.156,5.692,5.692,0,0,0,2.956-4.177c.288-3.465.447-7.454-1.121-11.439q.074-.125.182-.285c.1-.078.3-.213.443-.306.232-.154.464-.308.679-.471.771-.575,1.538-1.158,2.3-1.74,1.835-1.4,3.732-2.838,5.636-4.13a12.782,12.782,0,0,1,1.831-.943,14.889,14.889,0,0,0,3.367-1.926c1.186-.964,4.8-3.9,4.944-8.58.1-3.3.033-6.625-.036-9.836l-.042-2a4.572,4.572,0,0,0-2.387-4.148c-.272-.118-.373-.163-.686-1.724-.1-.483-.2-.969-.327-1.44a6.959,6.959,0,0,1,.03-2.1c.16-1.62.4-4.1-1.062-6.334a.357.357,0,0,1-.027-.352c.467-.961.941-1.919,1.414-2.876.568-1.145,1.134-2.29,1.689-3.441a8.174,8.174,0,0,0,.487-1.356c.027-.091.05-.185.079-.272.819-.931,1.674-1.831,2.574-2.781,1.057-1.116,2.151-2.269,3.191-3.484l1.091-1.286c2.71-3.206,5.268-6.234,8.754-8.033a6.111,6.111,0,0,0,2.005-1.812,3.378,3.378,0,0,1,.284-.347c4.727-4.476,7.118-10.06,9.43-15.46.78-1.822,1.518-3.543,2.344-5.232C285.7,89.88,286.205,85.843,285.491,80.863Z" transform="translate(-73.184 29.068)" fill="#fff"/>
      <path id="Path_196" data-name="Path 196" d="M240.01,148.206c.353-.871.352-.855,1.639-.763a.928.928,0,0,0,.559-.33c-.669-1.936,1.413-.923,1.539-1.336l.641-3.047c1.563.186,2.2-.826,2.655-2.115a7.028,7.028,0,0,1,.641-1.127,5.569,5.569,0,0,1,.866.771c1.854,2.523.78,5.29.907,7.973-.186.112-.345.225-.53.336l-.451-1.264c-.31.342-.463.441-.448.5.329,1.473-.259,2.538-1.039,3.821-1.222,2.011-1.787,4.418-2.769,6.593q-2.746,6.089-5.691,12.088c-.2.408-.925.637-1.453.781-.626.172-1.5-.079-1.919.272-1.459,1.227-2.5.01-3.206-.725-.662-.695-.758-2-.96-3.059-.148-.781.074-1.642-.114-2.406a3.861,3.861,0,0,1,.9-3.987c1.547-1.626,3.057-3.261,2.38-5.958-.46-1.825-.564-3.736.868-5.469C236.031,148.546,238.362,147.572,240.01,148.206Z" transform="translate(-41.916 56.161)" fill="#fff"/>
      <g id="Group_10" data-name="Group 10" transform="translate(153.774 81.298)">
        <rect id="Rectangle_24" data-name="Rectangle 24" width="16.652" height="18.099" transform="matrix(0.019, 1, -1, 0.019, 41.053, 0)" fill="#fff"/>
        <rect id="Rectangle_25" data-name="Rectangle 25" width="16.652" height="18.099" transform="matrix(0.019, 1, -1, 0.019, 18.096, 21.164)" fill="#fff"/>
        <rect id="Rectangle_26" data-name="Rectangle 26" width="9.977" height="9.977" transform="matrix(0.019, 1, -1, 0.019, 31.859, 21.17)" fill="#fff" opacity="0.6"/>
        <rect id="Rectangle_27" data-name="Rectangle 27" width="9.977" height="9.977" transform="matrix(0.019, 1, -1, 0.019, 19.815, 6.341)" fill="#fff" opacity="0.6"/>
        <rect id="Rectangle_28" data-name="Rectangle 28" width="6.78" height="6.78" transform="matrix(0.019, 1, -1, 0.019, 6.798, 3.797)" fill="#fff"/>
        <rect id="Rectangle_29" data-name="Rectangle 29" width="6.78" height="6.78" transform="matrix(0.019, 1, -1, 0.019, 41.456, 28.961)" fill="#fff"/>
      </g>
      <g id="Group_11" data-name="Group 11" transform="translate(125.165 117.948)">
        <path id="Path_197" data-name="Path 197" d="M198.867,110.34a12.379,12.379,0,1,1,12.307-12.378A12.356,12.356,0,0,1,198.867,110.34Zm0-18.652a6.275,6.275,0,1,0,6.2,6.275A6.246,6.246,0,0,0,198.867,91.688Z" transform="translate(-186.561 -85.583)" fill="#fff"/>
      </g>
      <path id="Path_198" data-name="Path 198" d="M249.728,19.954a11.879,11.879,0,0,0-9.4,19.05.588.588,0,0,1,.016.7l-5.178,7.245c-.432-.071-.862-.138-1.286-.2-.833-.125-1.619-.244-2.365-.408-1.94-.427-3.922-.928-5.839-1.413l-1.492-.375a.583.583,0,0,1-.293-.185c-3.014-3.462-6.919-1.956-8.884-1.2-.254.1-.507.2-.763.288a5.875,5.875,0,0,0-3.635,3.2,5.274,5.274,0,0,0-.28,3.216c-.231-.085-.458-.174-.643-.246-.394-.153-.786-.306-1.17-.434L207.958,49a22.165,22.165,0,0,1-3.2-1.243,7.288,7.288,0,0,1-1.217-.985c-.28-.257-.561-.513-.849-.754-.166-.14-.326-.29-.486-.438a11.041,11.041,0,0,0-1.626-1.312,11.882,11.882,0,0,0-5.643-1.482c-2.406-.189-3.076-.355-3.628-1.441a3.525,3.525,0,0,0-.18-.316,5.488,5.488,0,0,0,.832-4.35.6.6,0,0,1,.332-.686l1.157-.506a1.9,1.9,0,0,0,.052-3.462l-2.29-1.08c-.755-.357-1.3-.637-1.737-.865-.484-.249-.874-.448-1.274-.624l-.127-.058a4.416,4.416,0,0,0-4.1-.179c-.894.5-1.852.479-3.607.383l-.556-.03a48.732,48.732,0,0,0-6.683.271,46.578,46.578,0,0,1-5.521.27,18.718,18.718,0,0,0-7.063,1.212s-2.642.886-3.919,1.495l-.512.245a27.782,27.782,0,0,1-5.906-.252.577.577,0,0,1-.388-.268,4.017,4.017,0,0,0-3.39-2.057h-.043a3.7,3.7,0,0,0-2.465.953,5.689,5.689,0,0,0-2.479,2.7,8.541,8.541,0,0,1-2.119,2.819.729.729,0,0,1-.154.1,6.1,6.1,0,0,1-1.224.444,7.614,7.614,0,0,0-2.773,1.365,6.755,6.755,0,0,0-2.146,1.81c-.323.437-.693.852-1.062,1.271-1.444,1.64-3.549,4.032-3.245,7.589a.607.607,0,0,1-.187.5,24.352,24.352,0,0,1-2.335,1.9l-.058.037a12.742,12.742,0,0,1-3.35,1.453,8.436,8.436,0,0,0-2.838,1.436,8.588,8.588,0,0,0-2.492,2.113,18.107,18.107,0,0,1-2.08,2.1c-1.674,1.531-3.707,3.389-4.6,6.288a.536.536,0,0,1-.16.248c-3.046,2.661-4.985,5.959-6.86,9.15-.336.572-.675,1.147-1.022,1.723a.587.587,0,0,0-.074.19l-.288,1.482a1.98,1.98,0,0,0,.68,1.9l1.13.936c.107.042.2.081.274.117a9.363,9.363,0,0,0,.245,1.309,5.212,5.212,0,0,0,.069,1.9c.908,3.921-.827,6.758-3.692,11.167L99.92,97.82l-.092.252a1.633,1.633,0,0,0,.365,1.7l.809.83c.159.13.324.258.493.385-1.361,3.485.086,7.406,3.539,9.594a5.667,5.667,0,0,1,.405.479c.339.424.682.848,1.023,1.27,1.029,1.268,2,2.468,2.847,3.723a8.266,8.266,0,0,1,.833,1.453.583.583,0,0,1,.039.232,8.661,8.661,0,0,0,3.67,7.334c.775.636,1.557,1.264,2.338,1.893,1.914,1.541,3.72,3.018,5.454,4.582a.174.174,0,0,0,.03.025c.323.239,7.434,5.421,11.261,3.668,2.766-1.267,5.741-1.5,9.643-.752.1.023.388.134.577.209a5.79,5.79,0,0,0,3.586.48c.623-.151,1.254-.293,1.888-.435a30.565,30.565,0,0,0,8.667-2.894c1.639-.933,3.289-.973,5.378-1.023l.9-.025c1.825-.059,2.5.473,2.951,2.276a5.544,5.544,0,0,0,3.135,4.085,5.273,5.273,0,0,0,4.714-.453c.092-.006.187-.007.283-.007.053,0,.105,0,.157,0a11.667,11.667,0,0,0,1.245-.071c.52-.066,1.041-.141,1.561-.218.21.294,4.967-4.964,5.322-5.356.016-.017.027-.033.042-.052L245.3,43.284a.588.588,0,0,1,.675-.212,11.6,11.6,0,0,0,3.752.628,11.873,11.873,0,0,0,0-23.746Zm-74.305,110.6-.143.02a5.213,5.213,0,0,1-.566.023,8.3,8.3,0,0,0-1.9.195.606.606,0,0,1-.728-.379c-1.388-3.834-4.46-5.847-8.712-5.714l-.845.022c-.637.016-1.3.043-1.983.088,0,0-3.5.075-5.365,1.14a25.727,25.727,0,0,1-6.991,2.243c-.526.118-1.049.236-1.571.359-.105-.04-.212-.086-.321-.13a9.262,9.262,0,0,0-1.665-.525c-5.159-.987-9.394-.605-13.331,1.2-1.143.523-2.528.706-4.894-1.488-2.07-1.917-4.264-3.684-6.387-5.394-.767-.617-1.534-1.234-2.293-1.858-1.292-1.059-1.482-1.584-1.441-2.429a8.908,8.908,0,0,0-1.911-5.281c-1-1.48-2.1-2.841-3.168-4.157-.33-.407-.662-.816-.993-1.232a7.442,7.442,0,0,0-1.838-1.776c-.287-.183-1.691-1.152-1.165-2.337a5.144,5.144,0,0,0-.121-5.047.6.6,0,0,1-.006-.641c2.459-3.85,4.876-8.223,3.755-13.955a.56.56,0,0,1,.039-.346,6.294,6.294,0,0,0,.388-4.825,5.182,5.182,0,0,0-.735-1.339.6.6,0,0,1-.05-.667,26.433,26.433,0,0,1,5.111-6.75v0a3.6,3.6,0,0,0,1.8-2.482c.252-1.516,1.307-2.547,3.01-4.1a23.161,23.161,0,0,0,2.779-2.864,2.018,2.018,0,0,1,.146-.151,1.43,1.43,0,0,1,.146-.056,19.65,19.65,0,0,0,6.175-2.954,29.8,29.8,0,0,0,4.721-3.784,4.855,4.855,0,0,0,1.4-4.349c-.251-1.07.111-1.662,1.679-3.445.392-.444.788-.907,1.163-1.391a11.7,11.7,0,0,0,4.062-1.9,12.15,12.15,0,0,0,3.292-2.928.577.577,0,0,1,.643-.195c3.272,1.088,9.456,1.041,11.011.3l.734-.349c3.158-1.511,5.874-2.814,9.057-2.711a53.11,53.11,0,0,0,6.247-.288,43.015,43.015,0,0,1,5.854-.255l.525.027a17.6,17.6,0,0,0,3.826-.081.59.59,0,0,1,.542.193l.791.924a5.115,5.115,0,0,1,.714,1.013,4.156,4.156,0,0,1-.654.4l-1.137.621a.6.6,0,0,0-.3.414l-.225,1.206a5.6,5.6,0,0,0,1.181,4.231,3.317,3.317,0,0,0,1.908,1.045.587.587,0,0,1,.337.2c2.211,2.6,5.289,2.845,7.442,3.014a7.21,7.21,0,0,1,2.863.558,6.362,6.362,0,0,1,.731.624c.236.219.473.437.718.641.221.185.434.381.647.577a11.8,11.8,0,0,0,2.511,1.893,26.755,26.755,0,0,0,4.105,1.626l.543.182c.294.1.594.218.894.334a9.553,9.553,0,0,0,4.435.905,5.488,5.488,0,0,0,4.417-2.547,5.071,5.071,0,0,0,.2-4.542c.229-.085.458-.174.689-.262a8.053,8.053,0,0,1,1.949-.6,1.7,1.7,0,0,1,.411.5,3.473,3.473,0,0,0,2.256,1.495l2.357.592c1.963.5,3.993,1.01,6.027,1.457.337.074.669.131,1,.19ZM249.728,37.6a5.769,5.769,0,1,1,5.7-5.769A5.742,5.742,0,0,1,249.728,37.6Z" transform="translate(-99.728 3.393)" fill="#fff"/>
      <path id="Path_199" data-name="Path 199" d="M264.794,3.757a12.378,12.378,0,0,0-8.469,21.336l-95.447,133.56,4.966,3.549L261.679,28.1a12.219,12.219,0,0,0,3.115.417,12.379,12.379,0,0,0,0-24.757Zm0,18.654a6.275,6.275,0,1,1,6.2-6.275A6.246,6.246,0,0,1,264.794,22.411Z" transform="translate(-72.734 -3.757)" fill="#fff"/>
    </g>
    <text id="Communication" transform="translate(311.294 218.011)" font-size="38" font-family="Poppins-ExtraLight, Poppins" font-weight="200"><tspan x="0" y="0">Communication</tspan></text>
    <text id="for_better_Africa_" data-name="for better Africa!" transform="translate(485.508 237.028)" font-size="15" font-family="Poppins-Medium, Poppins" font-weight="500"><tspan x="0" y="0">for better Africa!</tspan></text>
    <g id="Group_13" data-name="Group 13" transform="translate(312.346 124.757)">
      <path id="Path_200" data-name="Path 200" d="M316.614,136.2a17.532,17.532,0,0,1-7.423,5.465c-9.929,3.661-23.131-.594-24.319-15.376-.761-9.485-.291-19.069-.4-28.608-.013-1.225.552-1.623,1.692-1.593,1.642.042,3.286.059,4.925-.012,1.33-.058,1.8.46,1.789,1.8q-.065,12.16-.006,24.32a27.215,27.215,0,0,0,.376,4.594c.953,5.4,4.967,8.212,10.919,7.756a9.277,9.277,0,0,0,8.28-9.207c.111-5.385.045-10.773.05-16.162,0-3.694.042-7.389-.027-11.082-.027-1.427.411-2.1,1.92-2.012,1.483.081,2.975-.009,4.463.016,2.054.035,2.217.222,2.217,2.357,0,8.724.029,17.446-.014,26.168a10.04,10.04,0,0,0,2.876,7.383c2.737,2.811,6.122,3.2,9.675,2.269,3.617-.95,5.632-3.607,6.5-7.124a16.381,16.381,0,0,0,.362-3.816c.032-8.313.014-16.626.022-24.937,0-2.24.072-2.3,2.364-2.3,1.385,0,2.773.065,4.156-.01,1.426-.076,1.865.543,1.858,1.916q-.065,11.39-.009,22.781a30.836,30.836,0,0,1-1.281,10.328c-2.949,8.6-10.187,12.45-18.746,11.664a16.516,16.516,0,0,1-11.138-5.59A14.531,14.531,0,0,0,316.614,136.2Z" transform="translate(-230.811 -84.004)" fill="#fff"/>
      <path id="Path_201" data-name="Path 201" d="M280.269,107.911a12.77,12.77,0,0,0-12.31-4.244c-7.676,1.325-12.574,8.987-11.9,16.842.5,5.79,3.089,10.357,8.3,13,7.741,3.922,16.546.043,19.522-8.383a26.8,26.8,0,0,0,.879-3.265c.186-.858.571-1.241,1.49-1.083,1.97.337,3.948.633,5.926.925.918.135,1.348.5,1.139,1.541-1.9,9.43-7.816,17.165-17.463,19.447A23.452,23.452,0,0,1,248.6,127.5a24.245,24.245,0,0,1,8.8-27.888,22.706,22.706,0,0,1,30.81,4.353c1.156,1.492,2.1,3.154,3.144,4.731.6.9.317,1.466-.587,1.966q-13.8,7.628-27.573,15.308c-.974.543-1.584.415-2.1-.582-.659-1.276-1.345-2.541-2.1-3.759-.643-1.031-.405-1.635.628-2.2,4.722-2.587,9.42-5.218,14.122-7.841C275.841,110.416,277.925,109.231,280.269,107.911Z" transform="translate(-247.231 -84.28)" fill="#fff"/>
      <path id="Path_202" data-name="Path 202" d="M436.972,107.935a11.775,11.775,0,0,0-8.835-4.435A14.48,14.48,0,0,0,413.1,115.911a16.8,16.8,0,0,0,4.434,15.029c5.7,6.027,17.532,5.64,22.113-3.568a30.214,30.214,0,0,0,1.849-5.355c.271-.966.582-1.411,1.671-1.208,1.914.356,3.853.578,5.779.879.751.118,1.408.317,1.205,1.362-1.738,8.918-7.3,17.205-17.31,19.6a23.467,23.467,0,0,1-28.771-22.485c-.1-9.922,4.133-17.5,12.874-22.162a22.619,22.619,0,0,1,29.946,8.584c2.352,3.876,2.4,3.1-1.479,5.269-8.373,4.678-16.789,9.28-25.152,13.975-1.23.689-1.92.587-2.534-.686-.6-1.245-1.284-2.455-2.005-3.635-.6-.987-.339-1.525.639-2.061,6.383-3.508,12.74-7.063,19.1-10.606C435.9,108.6,436.321,108.328,436.972,107.935Z" transform="translate(-177.997 -84.299)" fill="#fff"/>
      <path id="Path_203" data-name="Path 203" d="M357.872,143.22A23.446,23.446,0,0,1,334.408,120c-.062-9.351,3.755-16.732,11.818-21.391,11.386-6.579,24.62-2.765,31.4,8.652,1.828,3.077,1.736,2.587-1.074,4.147-8.7,4.832-17.417,9.633-26.1,14.488-1.084.605-1.744.577-2.312-.614a38,38,0,0,0-2-3.64c-.634-1.028-.4-1.629.634-2.2,4.724-2.587,9.42-5.225,14.125-7.846q2.623-1.459,5.244-2.919c1.281-.714,1.307-.983.173-1.956a13.591,13.591,0,0,0-19.083,1.4,16.8,16.8,0,0,0,1.563,23.635,13.794,13.794,0,0,0,21.911-5.885,33.513,33.513,0,0,0,1.162-3.98c.215-.826.582-1.219,1.516-1.062,1.972.33,3.958.572,5.939.85.9.127,1.375.492,1.149,1.542-1.766,8.173-5.821,14.625-13.665,18.218A19.892,19.892,0,0,1,357.872,143.22Z" transform="translate(-208.747 -84.304)" fill="#fff"/>
      <path id="Path_204" data-name="Path 204" d="M410.741,127.73q0,5.927,0,11.854c0,2.652,0,2.652-2.726,2.649q-1.617,0-3.233,0c-2.407-.007-2.409-.007-2.41-2.355,0-8.058.009-16.114-.017-24.172a11.939,11.939,0,0,0-3.135-8.6c-3.214-3.366-7.17-4.123-11.451-2.834-4.357,1.312-6.619,4.63-7.464,8.963a19.551,19.551,0,0,0-.294,3.674c-.026,7.749-.01,15.5-.016,23.248,0,2.041-.037,2.067-2.061,2.074-1.643.006-3.285-.027-4.927.01-.989.023-1.391-.4-1.381-1.375.1-9.232-.277-18.5.392-27.69.75-10.314,8.164-17.269,18.325-17.6,12.33-.406,19.742,7.925,20.335,19.693.208,4.146.033,8.311.033,12.469Z" transform="translate(-192.325 -84.233)" fill="#fff"/>
      <path id="Path_205" data-name="Path 205" d="M441.437,109.993c0-6.773.032-13.547-.025-20.32-.013-1.454.437-2.058,1.932-1.963s2.974.013,4.463.023c1.932.012,2.028.1,2.034,1.978.009,2.668-.01,5.336,0,8,.009,1.93.154,2.071,2.135,2.077,3.285.009,6.569.036,9.852-.019,1.387-.023,1.955.493,1.868,1.9a33.285,33.285,0,0,0,0,4.307c.1,1.459-.538,1.862-1.9,1.838-3.334-.061-6.671.037-10.005-.035-1.453-.032-1.989.448-1.973,1.94.059,5.952-.042,11.906.042,17.857.048,3.377.724,6.613,3.94,8.528a12.96,12.96,0,0,0,6.979,1.519c2.894-.036,2.9,0,2.9,2.941a31.327,31.327,0,0,1-.062,3.843c-.058.461-.7,1.194-1.11,1.215a28.729,28.729,0,0,1-10.357-1.006c-6.887-2.2-10.623-7.2-10.693-14.464-.062-6.721-.013-13.444-.013-20.166Z" transform="translate(-161.51 -87.7)" fill="#fff"/>
    </g>
  </g>
</svg>
