<svg xmlns="http://www.w3.org/2000/svg" xmlns:xlink="http://www.w3.org/1999/xlink" width="949" height="568.653" viewBox="0 0 949 568.653">
  <defs>
    <linearGradient id="linear-gradient" x1="0.5" x2="0.5" y2="1" gradientUnits="objectBoundingBox">
      <stop offset="0" stop-color="#b67b46"/>
      <stop offset="1" stop-color="#82460a"/>
    </linearGradient>
  </defs>
  <g id="image2" transform="translate(0 0)">
    <path id="Path_102" data-name="Path 102" d="M493.954,675.174a31.517,31.517,0,0,1-30.434-5.361c-10.66-8.947-14-23.687-16.721-37.336l-8.043-40.37,16.84,11.6c12.11,8.339,24.493,16.944,32.878,29.023s12.045,28.566,5.308,41.635" transform="translate(-125.5 -165.674)" fill="#e6e6e6"/>
    <path id="Path_103" data-name="Path 103" d="M492.515,724.05c1.7-12.415,3.457-24.99,2.261-37.538-1.062-11.144-4.462-22.029-11.383-30.953a51.492,51.492,0,0,0-13.211-11.971c-1.321-.834-2.537,1.26-1.222,2.09a48.952,48.952,0,0,1,19.363,23.363c4.216,10.722,4.893,22.411,4.166,33.8-.439,6.888-1.37,13.731-2.309,20.565a1.254,1.254,0,0,0,.845,1.489,1.218,1.218,0,0,0,1.489-.845Z" transform="translate(-125.5 -165.674)" fill="#f2f2f2"/>
    <path id="Path_104" data-name="Path 104" d="M476.1,702.081a23.2,23.2,0,0,1-20.215,10.433c-10.233-.486-18.764-7.628-26.444-14.408l-22.715-20.055,15.034-.719c10.811-.517,21.9-1,32.2,2.334s19.794,11.358,21.677,22.016" transform="translate(-125.5 -165.674)" fill="#e6e6e6"/>
    <path id="Path_105" data-name="Path 105" d="M497.332,731.187c-8.2-14.516-17.719-30.648-34.722-35.8a38.748,38.748,0,0,0-14.6-1.508c-1.551.134-1.163,2.524.384,2.39a36,36,0,0,1,23.306,6.166c6.572,4.473,11.688,10.692,16.019,17.286,2.653,4.039,5.029,8.25,7.405,12.456C495.88,733.517,498.1,732.547,497.332,731.187Z" transform="translate(-125.5 -165.674)" fill="#f2f2f2"/>
    <path id="Path_106" data-name="Path 106" d="M717.213,440.4,538.36,588.632a11.027,11.027,0,0,1-15.508-1.452l-75.395-90.969a11.027,11.027,0,0,1,1.452-15.509L627.761,332.469a11.027,11.027,0,0,1,15.509,1.451l75.395,90.969a11.027,11.027,0,0,1-1.452,15.508Z" transform="translate(-125.5 -165.674)" fill="#ccc"/>
    <path id="Path_107" data-name="Path 107" d="M710.046,435.934,535.3,580.76a5.68,5.68,0,0,1-7.989-.748l-71.987-86.857a5.68,5.68,0,0,1,.748-7.989L630.817,340.34a5.68,5.68,0,0,1,7.989.748l71.987,86.857a5.68,5.68,0,0,1-.748,7.989Z" transform="translate(-125.5 -165.674)" fill="#fff"/>
    <path id="Path_108" data-name="Path 108" d="M718.1,466.25l-35.94-3.364,25.723-20.245,13.857,16.719a4.152,4.152,0,0,1,.482,4.661,4.277,4.277,0,0,1-1.051,1.3A4.16,4.16,0,0,1,718.1,466.25Z" transform="translate(-125.5 -165.674)" fill="#ccc"/>
    <path id="Path_109" data-name="Path 109" d="M645.928,401.875l-88.4,73.265a5.34,5.34,0,0,1-6.815-8.223l88.4-73.265a5.34,5.34,0,0,1,6.815,8.223Z" transform="translate(-125.5 -165.674)" fill="#ccc"/>
    <path id="Path_110" data-name="Path 110" d="M602.664,408.255l-59.618,49.411a5.34,5.34,0,0,1-6.815-8.223l59.618-49.411a5.34,5.34,0,1,1,6.815,8.223Z" transform="translate(-125.5 -165.674)" fill="#ccc"/>
    <circle id="Ellipse_52" data-name="Ellipse 52" cx="16.688" cy="16.688" r="16.688" transform="translate(368.099 310.259)" fill="url(#linear-gradient)"/>
    <circle id="Ellipse_53" data-name="Ellipse 53" cx="5.34" cy="5.34" r="5.34" transform="translate(512.192 282.816)" fill="#e6e6e6"/>
    <circle id="Ellipse_54" data-name="Ellipse 54" cx="5.34" cy="5.34" r="5.34" transform="translate(526.583 270.889)" fill="#e6e6e6"/>
    <circle id="Ellipse_55" data-name="Ellipse 55" cx="5.34" cy="5.34" r="5.34" transform="translate(540.973 258.962)" fill="#e6e6e6"/>
    <path id="Path_111" data-name="Path 111" d="M461.2,556.214h12.26l5.832-47.288H461.2Z" fill="#ffb8b8"/>
    <path id="Path_112" data-name="Path 112" d="M583.571,717.885h24.145A15.386,15.386,0,0,1,623.1,733.271v.5H583.572Z" transform="translate(-125.5 -165.674)" fill="#2f2e41"/>
    <path id="Path_113" data-name="Path 113" d="M417.2,556.214h12.26l5.832-47.288H417.2Z" fill="#ffb8b8"/>
    <path id="Path_114" data-name="Path 114" d="M539.571,717.885h24.145A15.386,15.386,0,0,1,579.1,733.271v.5H539.572Z" transform="translate(-125.5 -165.674)" fill="#2f2e41"/>
    <path id="Path_115" data-name="Path 115" d="M555,707.419h0l-10.425,0a4.482,4.482,0,0,1-4.495-4.338l-.328-9.121c-2.635-72.94-5.361-148.364,11.517-182.265l.132-.267,55.88-2.022L618.5,612.314a44.622,44.622,0,0,1-.52,13.164l-14.83,78.149a4.5,4.5,0,0,1-4.6,3.658l-11.711-.38a4.5,4.5,0,0,1-4.3-4.943l9.2-72.279a24.7,24.7,0,0,0-.835-9.284L579.462,580.4a1.5,1.5,0,0,0-2.928.206L559.458,703.538A4.518,4.518,0,0,1,555,707.419Z" transform="translate(-125.5 -165.674)" fill="#2f2e41"/>
    <circle id="Ellipse_56" data-name="Ellipse 56" cx="24.561" cy="24.561" r="24.561" transform="translate(411.622 191.72)" fill="#ffb8b8"/>
    <path id="Path_116" data-name="Path 116" d="M604.66,517H553.837a4.5,4.5,0,0,1-4.453-5.15l2.511-17.2L537.151,454.1a29.844,29.844,0,0,1,24.009-39.767h0a29.73,29.73,0,0,1,31.021,16.815l3.238,6.891,13.666,73.64A4.5,4.5,0,0,1,604.66,517Z" transform="translate(-125.5 -165.674)" fill="url(#linear-gradient)"/>
    <path id="Path_117" data-name="Path 117" d="M497.374,560.136a10.743,10.743,0,0,0,7.445-14.694l39.6-89.472-22.655-5.706-31.8,89.742a10.8,10.8,0,0,0,7.412,20.13Z" transform="translate(-125.5 -165.674)" fill="#ffb8b8"/>
    <path id="Path_118" data-name="Path 118" d="M539.06,471.971l-22.033-10.314a4.817,4.817,0,0,1-1.974-7.022l13.391-20.223a13.377,13.377,0,1,1,24.2,11.413l-6.924,23.163a4.817,4.817,0,0,1-6.657,2.982Z" transform="translate(-125.5 -165.674)" fill="url(#linear-gradient)"/>
    <path id="Path_119" data-name="Path 119" d="M662.575,329.9a10.743,10.743,0,0,1-8.809,13.919L597.2,423.651l-16.5-16.536L641.49,333.84a10.8,10.8,0,0,1,21.086-3.943Z" transform="translate(-125.5 -165.674)" fill="#ffb8b8"/>
    <path id="Path_120" data-name="Path 120" d="M610.279,414.281a4.811,4.811,0,0,1-1.235,3.816l-16.349,17.809a13.377,13.377,0,1,1-22.2-14.939l10.512-21.858a4.817,4.817,0,0,1,7.042-1.9L608.2,410.852a4.811,4.811,0,0,1,2.083,3.429Z" transform="translate(-125.5 -165.674)" fill="url(#linear-gradient)"/>
    <path id="Path_121" data-name="Path 121" d="M593.955,371.674a25.26,25.26,0,0,0-.918-6.576c-3.957-14.622-18.565-23.4-33.225-21.2a31.7,31.7,0,0,0-8.769-1.228h0A31.621,31.621,0,0,0,519.8,369.441l-11.842,76.233h64l10.334-66.526a31.778,31.778,0,0,0,.269-7.474Z" transform="translate(-125.5 -165.674)" fill="#2f2e41"/>
    <path id="Path_122" data-name="Path 122" d="M673.5,734.326h-211a1,1,0,0,1,0-2h211a1,1,0,0,1,0,2Z" transform="translate(-125.5 -165.674)" fill="#ccc"/>
    <path id="Path_123" data-name="Path 123" d="M886.07,243.341a10.056,10.056,0,0,1,10.986,10.819l32.707,14.4-15.6,10.071-28.667-15.214a10.11,10.11,0,0,1,.576-20.071Z" transform="translate(-125.5 -165.674)" fill="#a0616a"/>
    <circle id="Ellipse_57" data-name="Ellipse 57" cx="24.561" cy="24.561" r="24.561" transform="translate(867.941 10.589)" fill="#a0616a"/>
    <path id="Path_124" data-name="Path 124" d="M848.05,385.364H835.79l-5.832-47.288h18.094Z" fill="#a0616a"/>
    <path id="Path_125" data-name="Path 125" d="M976.676,562.921H937.146v-.5a15.386,15.386,0,0,1,15.387-15.386h24.145Z" transform="translate(-125.5 -165.674)" fill="#2f2e41"/>
    <path id="Path_126" data-name="Path 126" d="M899.05,385.364H886.79l-5.832-47.288h18.094Z" fill="#a0616a"/>
    <path id="Path_127" data-name="Path 127" d="M1027.68,562.921H988.15v-.5a15.386,15.386,0,0,1,15.387-15.386h24.145Z" transform="translate(-125.5 -165.674)" fill="#2f2e41"/>
    <path id="Path_128" data-name="Path 128" d="M1023.97,540.966a4.52,4.52,0,0,1-.549-.034l-17.946-2.209a4.493,4.493,0,0,1-3.944-4.235L996.3,416.723a1.5,1.5,0,0,0-2.857-.554l-13.434,44.784-2.766,71.937a4.5,4.5,0,0,1-5.023,4.295l-15.541-1.829a4.485,4.485,0,0,1-3.973-4.557l1.319-67.714,10.529-106.292.47.018,64.022,2.468-.577,177.2a4.5,4.5,0,0,1-4.5,4.485Z" transform="translate(-125.5 -165.674)" fill="#2f2e41"/>
    <path id="Path_129" data-name="Path 129" d="M1026.62,368.992h-.117L962.024,367.3a4.5,4.5,0,0,1-4.341-5.1l12.39-91.191a44.133,44.133,0,0,1,18.68-30.792,38.2,38.2,0,0,1,31.108-5.547c22.506,5.7,36.008,29.87,30.1,53.872l-18.968,77.029a4.526,4.526,0,0,1-4.37,3.424Z" transform="translate(-125.5 -165.674)" fill="#3f3d56"/>
    <path id="Path_130" data-name="Path 130" d="M942.03,296.578a21.822,21.822,0,0,1-11.964-3.555l-37.6-24.67a4.5,4.5,0,0,1-.8-6.856l5.665-5.98a4.484,4.484,0,0,1,4.932-1.087l42,16.726,38.909-27.786a16.155,16.155,0,1,1,16.446,27.678L951.53,294.4a21.74,21.74,0,0,1-9.5,2.174Z" transform="translate(-125.5 -165.674)" fill="#3f3d56"/>
    <path id="Path_131" data-name="Path 131" d="M1026.51,224.311c4.19.989,9.245,1.749,12.24-1.345a12.5,12.5,0,0,0,1.416-1.89l3.915-5.977c3-4.579,6.051-9.277,7.321-14.6a23.741,23.741,0,0,0-17.907-28.674c-5.846-1.309-11.566-3.561-17.542-3.15s-12.985.276-18-3c.313,1.46,2,7.913,2,7.913s-7.541,6.919-9.054,8.644a14.166,14.166,0,0,1,19.723,10.671c.428,2.626.177,5.538,1.737,7.693,1.484,2.05,4.145,2.768,6.382,3.952a15.563,15.563,0,0,1,6.847,19.045Z" transform="translate(-125.5 -165.674)" fill="#2f2e41"/>
    <path id="Path_132" data-name="Path 132" d="M997.023,377.788H793.434a9.664,9.664,0,0,1-9.653-9.653V264.586a9.664,9.664,0,0,1,9.653-9.653H997.023a9.664,9.664,0,0,1,9.653,9.653V368.135A9.664,9.664,0,0,1,997.023,377.788Z" transform="translate(-125.5 -165.674)" fill="#ccc"/>
    <path id="Path_133" data-name="Path 133" d="M994.683,370.768H795.774A4.978,4.978,0,0,1,790.8,365.8v-98.87a4.978,4.978,0,0,1,4.973-4.973H994.683a4.978,4.978,0,0,1,4.973,4.973V365.8A4.978,4.978,0,0,1,994.683,370.768Z" transform="translate(-125.5 -165.674)" fill="#fff"/>
    <path id="Path_134" data-name="Path 134" d="M983.164,395.73l-22.37-22.37,28.68.725v19.032a3.639,3.639,0,0,1-2.282,3.415,3.75,3.75,0,0,1-1.438.291,3.646,3.646,0,0,1-2.59-1.093Z" transform="translate(-125.5 -165.674)" fill="#ccc"/>
    <path id="Path_135" data-name="Path 135" d="M970.465,311.927H869.84a4.68,4.68,0,1,1,0-9.36H970.465a4.68,4.68,0,1,1,0,9.36Z" transform="translate(-125.5 -165.674)" fill="#ccc"/>
    <path id="Path_136" data-name="Path 136" d="M937.7,292.036H869.84a4.68,4.68,0,1,1,0-9.36H937.7a4.68,4.68,0,0,1,0,9.36Z" transform="translate(-125.5 -165.674)" fill="#ccc"/>
    <circle id="Ellipse_58" data-name="Ellipse 58" cx="14.626" cy="14.626" r="14.626" transform="translate(688.06 117.002)" fill="url(#linear-gradient)"/>
    <circle id="Ellipse_59" data-name="Ellipse 59" cx="4.68" cy="4.68" r="4.68" transform="translate(809.275 175.012)" fill="#e6e6e6"/>
    <circle id="Ellipse_60" data-name="Ellipse 60" cx="4.68" cy="4.68" r="4.68" transform="translate(825.656 175.012)" fill="#e6e6e6"/>
    <circle id="Ellipse_61" data-name="Ellipse 61" cx="4.68" cy="4.68" r="4.68" transform="translate(842.036 175.012)" fill="#e6e6e6"/>
    <path id="Path_137" data-name="Path 137" d="M993.871,365.474a10.056,10.056,0,0,1,12.839-8.54l20.783-29.069,6.665,17.332L1013.4,370.145a10.11,10.11,0,0,1-19.529-4.671Z" transform="translate(-125.5 -165.674)" fill="#a0616a"/>
    <path id="Path_138" data-name="Path 138" d="M1017.68,363.9a4.5,4.5,0,0,1-4.186-2.085l-4.392-6.968a4.48,4.48,0,0,1,.168-5.048l26.6-36.554-17.291-44.576a16.07,16.07,0,0,1,8.814-20.74h0a16.154,16.154,0,0,1,22.073,11.656l10.728,52.373a21.884,21.884,0,0,1-6.651,20.454l-33.21,30.325a4.487,4.487,0,0,1-2.655,1.161Z" transform="translate(-125.5 -165.674)" fill="#3f3d56"/>
    <path id="Path_139" data-name="Path 139" d="M1073.5,565.326h-211a1,1,0,0,1,0-2h211a1,1,0,0,1,0,2Z" transform="translate(-125.5 -165.674)" fill="#ccc"/>
    <path id="Path_140" data-name="Path 140" d="M382.118,316.45H178.528a9.664,9.664,0,0,1-9.653-9.653V203.247a9.664,9.664,0,0,1,9.653-9.653h203.59a9.664,9.664,0,0,1,9.653,9.653V306.8a9.664,9.664,0,0,1-9.653,9.653Z" transform="translate(-125.5 -165.674)" fill="#ccc"/>
    <path id="Path_141" data-name="Path 141" d="M379.777,309.43H180.868a4.978,4.978,0,0,1-4.973-4.973v-98.87a4.978,4.978,0,0,1,4.973-4.973H379.777a4.978,4.978,0,0,1,4.973,4.973v98.87A4.978,4.978,0,0,1,379.777,309.43Z" transform="translate(-125.5 -165.674)" fill="#fff"/>
    <path id="Path_142" data-name="Path 142" d="M368.258,334.392l-22.37-22.37,28.68.725v19.032a3.639,3.639,0,0,1-2.282,3.415,3.75,3.75,0,0,1-1.438.291,3.645,3.645,0,0,1-2.59-1.092Z" transform="translate(-125.5 -165.674)" fill="#ccc"/>
    <path id="Path_143" data-name="Path 143" d="M355.559,250.588H254.934a4.68,4.68,0,0,1,0-9.36H355.559a4.68,4.68,0,0,1,0,9.36Z" transform="translate(-125.5 -165.674)" fill="#ccc"/>
    <path id="Path_144" data-name="Path 144" d="M322.8,230.7H254.934a4.68,4.68,0,0,1,0-9.36H322.8a4.68,4.68,0,0,1,0,9.36Z" transform="translate(-125.5 -165.674)" fill="#ccc"/>
    <circle id="Ellipse_62" data-name="Ellipse 62" cx="14.626" cy="14.626" r="14.626" transform="translate(73.155 55.663)" fill="url(#linear-gradient)"/>
    <circle id="Ellipse_63" data-name="Ellipse 63" cx="4.68" cy="4.68" r="4.68" transform="translate(194.369 113.673)" fill="#e6e6e6"/>
    <circle id="Ellipse_64" data-name="Ellipse 64" cx="4.68" cy="4.68" r="4.68" transform="translate(210.75 113.673)" fill="#e6e6e6"/>
    <circle id="Ellipse_65" data-name="Ellipse 65" cx="4.68" cy="4.68" r="4.68" transform="translate(227.131 113.673)" fill="#e6e6e6"/>
    <path id="Path_145" data-name="Path 145" d="M373.674,183.645a10.056,10.056,0,0,0-5.31,14.476l-23.42,26.99,18.409,2.439,19.418-26a10.11,10.11,0,0,0-9.1-17.9Z" transform="translate(-125.5 -165.674)" fill="#ffb8b8"/>
    <path id="Path_146" data-name="Path 146" d="M217.3,194.451a10.056,10.056,0,0,1-7.754,13.328l-5.828,35.256L190.088,230.42l7.624-31.546a10.11,10.11,0,0,1,19.586-4.423Z" transform="translate(-125.5 -165.674)" fill="#ffb8b8"/>
    <path id="Path_147" data-name="Path 147" d="M128.4,385.364h12.26l5.832-47.288H128.4Z" fill="#ffb8b8"/>
    <path id="Path_148" data-name="Path 148" d="M250.772,547.035h24.145A15.386,15.386,0,0,1,290.3,562.421v.5H250.773Z" transform="translate(-125.5 -165.674)" fill="#2f2e41"/>
    <path id="Path_149" data-name="Path 149" d="M65.4,385.364h12.26l5.832-47.288H65.4Z" fill="#ffb8b8"/>
    <path id="Path_150" data-name="Path 150" d="M187.772,547.035h24.145A15.386,15.386,0,0,1,227.3,562.421v.5H187.773Z" transform="translate(-125.5 -165.674)" fill="#2f2e41"/>
    <circle id="Ellipse_66" data-name="Ellipse 66" cx="24.561" cy="24.561" r="24.561" transform="translate(101.279 13.386)" fill="#ffb8b8"/>
    <path id="Path_151" data-name="Path 151" d="M248.4,535.328l-2.031-129.406a1.5,1.5,0,0,0-2.959-.324L210.115,532.174a4.555,4.555,0,0,1-4.571,3.459l-18.29-.782a4.5,4.5,0,0,1-4.272-5.06l28.249-162.658.058-.459,78.682,3.723.513.023L273.611,535.6a4.519,4.519,0,0,1-4.487,4.166H252.9A4.518,4.518,0,0,1,248.4,535.328Z" transform="translate(-125.5 -165.674)" fill="#2f2e41"/>
    <path id="Path_152" data-name="Path 152" d="M310.54,381.357l-114.178-9.37a4.5,4.5,0,0,1-3.864-6.015l17.981-49.712,1.035-59a16.181,16.181,0,0,1,16.667-15.891l7.593-6.883h27.82l2.422,3.176,19.357,2.975a16.272,16.272,0,0,1,13.58,13.833l16.415,121.8a4.5,4.5,0,0,1-4.454,5.1C310.79,381.373,310.665,381.368,310.54,381.357Z" transform="translate(-125.5 -165.674)" fill="#2f2e41"/>
    <path id="Path_153" data-name="Path 153" d="M288.294,246.355l48.684-14.264,22.033-29.008a4.5,4.5,0,0,1,5.352-1.416l13.756,5.88a4.5,4.5,0,0,1,2.119,6.4l-16.466,28.256a25.2,25.2,0,0,1-11.654,10.423l-57.261,25.313Z" transform="translate(-125.5 -165.674)" fill="#2f2e41"/>
    <path id="Path_154" data-name="Path 154" d="M194.893,267.691a20.865,20.865,0,0,1-8.6-18.575l2.136-28.308a4.512,4.512,0,0,1,4.488-4.161h.04l16.132.144a4.5,4.5,0,0,1,4.376,5.365l-2.993,15.271,21.36,9.025-17.987,34.993Z" transform="translate(-125.5 -165.674)" fill="#2f2e41"/>
    <path id="Path_155" data-name="Path 155" d="M265.628,174.17s-25.685-13.83-39.685,2.492,5.334,41.848,5.334,41.848l27.548,3.474s1-18.727,7.559-18.363S293.313,180.355,265.628,174.17Z" transform="translate(-125.5 -165.674)" fill="#2f2e41"/>
    <path id="Path_156" data-name="Path 156" d="M337.5,564.326h-211a1,1,0,0,1,0-2h211a1,1,0,0,1,0,2Z" transform="translate(-125.5 -165.674)" fill="#ccc"/>
  </g>
</svg>
