<svg xmlns="http://www.w3.org/2000/svg" xmlns:xlink="http://www.w3.org/1999/xlink" width="684.574" height="516.763" viewBox="0 0 684.574 516.763">
  <defs>
    <linearGradient id="linear-gradient" x1="0.5" x2="0.5" y2="1" gradientUnits="objectBoundingBox">
      <stop offset="0" stop-color="#b67b46"/>
      <stop offset="1" stop-color="#82460a"/>
    </linearGradient>
  </defs>
  <g id="image1" transform="translate(0 0)">
    <path id="Path_9" data-name="Path 9" d="M669.957,131.611c5.872,12.5-6.571,16.035-20.824,22.733s-24.919,14.017-30.791,1.521-10.636-37.3,9.527-46.773C648.727,99.291,664.085,119.115,669.957,131.611Z" transform="translate(-275.458 -106.46)" fill="#2f2e41"/>
    <circle id="Ellipse_36" data-name="Ellipse 36" cx="19.188" cy="19.188" r="19.188" transform="translate(346.23 11.35)" fill="#ffb8b8"/>
    <path id="Path_10" data-name="Path 10" d="M751.226,247.424c-.664-.867-1.328-1.719-2-2.547q-1.3-1.617-2.617-3.133c-9.945-11.476-20.523-18.7-32.171-19.476h-.016l-.172-.016-23.21,22.624-7.891,7.687.172.422,4.257,10.6h74.6a183.451,183.451,0,0,0-10.953-16.164Z" transform="translate(-290.748 -131.792)" fill="#2f2e41"/>
    <path id="Path_11" data-name="Path 11" d="M621.361,146.864h0l6.869-3.228-.957-9.909,4.593,8.2,3.283-1.543-.558-5.78,2.679,4.783,24.393-11.463h0a20.312,20.312,0,0,0-27.022-9.745l-3.535,1.661a20.312,20.312,0,0,0-9.745,27.022Z" transform="translate(-276.808 -108.602)" fill="#2f2e41"/>
    <path id="Path_12" data-name="Path 12" d="M709.588,527.592H308.942a12.9,12.9,0,0,1-12.89-12.89V273.962a9.454,9.454,0,0,1,9.443-9.444H712.871a9.618,9.618,0,0,1,9.607,9.607V514.7a12.9,12.9,0,0,1-12.89,12.89Z" transform="translate(-206.064 -141.039)" fill="#f2f2f2"/>
    <path id="Path_13" data-name="Path 13" d="M325.052,520.542H700.7a12.5,12.5,0,0,0,12.5-12.5V303.713a12.5,12.5,0,0,0-12.5-12.5H325.052a12.5,12.5,0,0,0-12.5,12.5v204.33A12.5,12.5,0,0,0,325.052,520.542Z" transform="translate(-209.673 -146.879)" fill="#fff"/>
    <path id="Path_14" data-name="Path 14" d="M722.247,270.2H295.82v-6.563a12.948,12.948,0,0,1,12.937-12.929H709.31a12.948,12.948,0,0,1,12.937,12.929Z" transform="translate(-206.013 -138.018)" fill="#b67b46"/>
    <circle id="Ellipse_37" data-name="Ellipse 37" cx="3.346" cy="3.346" r="3.346" transform="translate(109.972 119.113)" fill="#fff"/>
    <circle id="Ellipse_38" data-name="Ellipse 38" cx="3.346" cy="3.346" r="3.346" transform="translate(122.674 119.113)" fill="#fff"/>
    <circle id="Ellipse_39" data-name="Ellipse 39" cx="3.346" cy="3.346" r="3.346" transform="translate(135.376 119.113)" fill="#fff"/>
    <path id="Path_15" data-name="Path 15" d="M572.489,514.476H538.9a7.43,7.43,0,0,1-7.422-7.422V473.462a7.43,7.43,0,0,1,7.422-7.422h33.593a7.43,7.43,0,0,1,7.422,7.422v33.593A7.43,7.43,0,0,1,572.489,514.476ZM538.9,467.6a5.866,5.866,0,0,0-5.859,5.859v33.593a5.866,5.866,0,0,0,5.859,5.859h33.593a5.866,5.866,0,0,0,5.859-5.859V473.462a5.866,5.866,0,0,0-5.859-5.859Z" transform="translate(-257.567 -185.125)" fill="#ccc"/>
    <path id="Path_16" data-name="Path 16" d="M569.13,507.727H548.818a2.346,2.346,0,0,1-2.344-2.344v-25a2.346,2.346,0,0,1,2.344-2.344h14.718a2.35,2.35,0,0,1,1.468.517l5.594,4.5a2.332,2.332,0,0,1,.876,1.827v20.5A2.346,2.346,0,0,1,569.13,507.727ZM548.818,479.6a.782.782,0,0,0-.781.781v25a.782.782,0,0,0,.781.781H569.13a.782.782,0,0,0,.781-.781v-20.5a.777.777,0,0,0-.292-.609l-5.595-4.5a.783.783,0,0,0-.489-.172Z" transform="translate(-260.848 -187.75)" fill="#ccc"/>
    <path id="Path_17" data-name="Path 17" d="M566.755,491.6h-12.5a.781.781,0,1,1,0-1.562h12.5a.781.781,0,0,1,0,1.562Z" transform="translate(-262.379 -190.376)" fill="#ccc"/>
    <path id="Path_18" data-name="Path 18" d="M566.755,497.6h-12.5a.781.781,0,1,1,0-1.562h12.5a.781.781,0,0,1,0,1.562Z" transform="translate(-262.379 -191.688)" fill="#ccc"/>
    <path id="Path_19" data-name="Path 19" d="M566.755,503.6h-12.5a.781.781,0,0,1,0-1.562h12.5a.781.781,0,0,1,0,1.563Z" transform="translate(-262.379 -193.001)" fill="#ccc"/>
    <path id="Path_20" data-name="Path 20" d="M674.489,514.476H640.9a7.43,7.43,0,0,1-7.422-7.422V473.462a7.43,7.43,0,0,1,7.422-7.422h33.593a7.43,7.43,0,0,1,7.422,7.422v33.593A7.43,7.43,0,0,1,674.489,514.476ZM640.9,467.6a5.866,5.866,0,0,0-5.859,5.859v33.593a5.866,5.866,0,0,0,5.859,5.859h33.593a5.866,5.866,0,0,0,5.859-5.859V473.462a5.866,5.866,0,0,0-5.859-5.859Z" transform="translate(-279.881 -185.125)" fill="#ccc"/>
    <path id="Path_21" data-name="Path 21" d="M671.692,503.227H649.818a2.346,2.346,0,0,1-2.344-2.344v-12.5a2.346,2.346,0,0,1,2.344-2.344h21.874a2.346,2.346,0,0,1,2.344,2.344v12.5A2.346,2.346,0,0,1,671.692,503.227ZM649.818,487.6a.782.782,0,0,0-.781.781v12.5a.782.782,0,0,0,.781.781h21.874a.782.782,0,0,0,.781-.781v-12.5a.782.782,0,0,0-.781-.781Z" transform="translate(-282.944 -189.501)" fill="#ccc"/>
    <path id="Path_22" data-name="Path 22" d="M660.755,497.132a2.347,2.347,0,0,1-1.242-.354l-11.672-7.295a.781.781,0,0,1,.829-1.325l11.672,7.295a.786.786,0,0,0,.828,0l11.671-7.295a.781.781,0,1,1,.828,1.325L662,496.778A2.347,2.347,0,0,1,660.755,497.132Z" transform="translate(-282.944 -189.938)" fill="#ccc"/>
    <path id="Path_23" data-name="Path 23" d="M470.489,514.476H436.9a7.43,7.43,0,0,1-7.422-7.422V473.462a7.43,7.43,0,0,1,7.422-7.422h33.593a7.43,7.43,0,0,1,7.422,7.422v33.593A7.43,7.43,0,0,1,470.489,514.476ZM436.9,467.6a5.866,5.866,0,0,0-5.859,5.859v33.593a5.866,5.866,0,0,0,5.859,5.859h33.593a5.866,5.866,0,0,0,5.859-5.859V473.462a5.866,5.866,0,0,0-5.859-5.859Z" transform="translate(-235.252 -185.125)" fill="#ccc"/>
    <path id="Path_24" data-name="Path 24" d="M467.692,503.227H445.818a2.346,2.346,0,0,1-2.344-2.344v-12.5a2.346,2.346,0,0,1,2.344-2.344h21.874a2.346,2.346,0,0,1,2.344,2.344v12.5A2.346,2.346,0,0,1,467.692,503.227ZM445.818,487.6a.782.782,0,0,0-.781.781v12.5a.782.782,0,0,0,.781.781h21.874a.782.782,0,0,0,.781-.781v-12.5a.782.782,0,0,0-.781-.781Z" transform="translate(-238.315 -189.501)" fill="#ccc"/>
    <path id="Path_25" data-name="Path 25" d="M465.2,504.868H449.474a1.562,1.562,0,0,1-1.353-2.344l4.735-8.2a1.563,1.563,0,0,1,2.706,0l3.059,5.3,1.772-3.069a1.563,1.563,0,0,1,2.706,0l3.449,5.974a1.562,1.562,0,0,1-1.353,2.344Zm0-1.562h0l-3.449-5.974-2.448,4.241a.781.781,0,0,1-.677.391h0a.781.781,0,0,1-.677-.391l-3.735-6.47-4.736,8.2Z" transform="translate(-239.286 -191.141)" fill="#ccc"/>
    <circle id="Ellipse_40" data-name="Ellipse 40" cx="1.562" cy="1.562" r="1.562" transform="translate(225.471 299.664)" fill="#ccc"/>
    <path id="Path_26" data-name="Path 26" d="M764.867,637.8h-9.578l-4.556-36.943h14.136Z" transform="translate(-164.237 -131.449)" fill="#ffb8b8"/>
    <path id="Path_27" data-name="Path 27" d="M944.168,763.018H913.285v-.391a12.02,12.02,0,0,1,12.021-12.02h18.863Z" transform="translate(-341.095 -247.379)" fill="#2f2e41"/>
    <path id="Path_28" data-name="Path 28" d="M814.867,637.8h-9.578l-4.556-36.943h14.136Z" transform="translate(-175.175 -131.449)" fill="#ffb8b8"/>
    <path id="Path_29" data-name="Path 29" d="M994.172,763.018H963.289v-.391a12.02,12.02,0,0,1,12.021-12.02h18.863Z" transform="translate(-352.034 -247.379)" fill="#2f2e41"/>
    <path id="Path_30" data-name="Path 30" d="M981.3,694.348l-8.87-2.7a3.51,3.51,0,0,1-2.473-2.995l-8.27-78.379a.375.375,0,0,0-.374-.349.367.367,0,0,0-.4.32l-13.852,75.935a3.516,3.516,0,0,1-4.168,2.812l-11.337-2.335a3.528,3.528,0,0,1-2.8-3.681l8.426-124.46,57.138-6.165L985.831,691.2a3.513,3.513,0,0,1-4.532,3.15Z" transform="translate(-344.478 -204.008)" fill="#2f2e41"/>
    <circle id="Ellipse_41" data-name="Ellipse 41" cx="19.188" cy="19.188" r="19.188" transform="translate(617.578 207.75)" fill="#ffb8b8"/>
    <path id="Path_31" data-name="Path 31" d="M939.433,532.353l12.389-78.007a29.575,29.575,0,0,1,37.5-23.749h0a29.486,29.486,0,0,1,20.782,33.8l-12.961,69.664Z" transform="translate(-346.815 -177.112)" fill="url(#linear-gradient)"/>
    <path id="Path_32" data-name="Path 32" d="M999.278,568.748a7.856,7.856,0,0,0,1.365-11.969l12.809-24.805-14.425,1.539-9.952,23.319a7.9,7.9,0,0,0,10.2,11.915Z" transform="translate(-357.218 -199.55)" fill="#ffb8b8"/>
    <path id="Path_33" data-name="Path 33" d="M1004.021,533.41a3.52,3.52,0,0,1-1.9-.9l-4.9-4.528a3.527,3.527,0,0,1-.853-3.949l9.795-23.217-1.39-45.874A11.325,11.325,0,0,1,1027.219,458l2.376,28.837a36.228,36.228,0,0,1-6.983,24.528l-15.275,20.65a3.519,3.519,0,0,1-2.5,1.409A3.476,3.476,0,0,1,1004.021,533.41Z" transform="translate(-359.211 -180.555)" fill="url(#linear-gradient)"/>
    <path id="Path_34" data-name="Path 34" d="M854.465,380.937a7.856,7.856,0,0,0,10.489,5.923L882.8,408.327l4.207-13.884-17.594-18.257a7.9,7.9,0,0,0-14.95,4.751Z" transform="translate(-328.196 -164.454)" fill="#ffb8b8"/>
    <path id="Path_35" data-name="Path 35" d="M872.261,393.709a3.52,3.52,0,0,1,1.567-1.4l6.081-2.747a3.527,3.527,0,0,1,3.969.754l17.561,18.072L944.223,425a11.325,11.325,0,1,1-11.569,19.473l-27.481-9.056a36.228,36.228,0,0,1-19.865-15.993l-13.06-22.117a3.52,3.52,0,0,1-.324-2.848,3.478,3.478,0,0,1,.337-.748Z" transform="translate(-332.01 -168.328)" fill="url(#linear-gradient)"/>
    <path id="Path_36" data-name="Path 36" d="M830.753,375.652l-.781,25L815.58,425.659,827.6,397.791Z" transform="translate(-178.423 -82.181)" opacity="0.1"/>
    <path id="Path_37" data-name="Path 37" d="M986.782,393.9a5.018,5.018,0,0,1-5.492-3.674,7.628,7.628,0,0,0-5.43-5.682c-3.52-.8-7.822.853-10.4-1.814a5.185,5.185,0,0,1-1.231-4.564c.475-2.591,2.329-4.549,4.346-6.115a26.611,26.611,0,0,1,14.739-5.508,52.876,52.876,0,0,1,8.3.413,36.725,36.725,0,0,1,8.487,1.551,19.981,19.981,0,0,1,12.5,14.594,23.069,23.069,0,0,1-4.732,18.851,24.764,24.764,0,0,1-9.5,7.233,3.706,3.706,0,0,1-2.817.143c-2.31-.919-1.933-3.78-.879-5.689,1.127-2.043,2.862-4.021,1.955-6.507a4.923,4.923,0,0,0-2.443-2.63c-2.3-1.171-4.866-.894-7.335-.609Z" transform="translate(-352.215 -163.352)" fill="#2f2e41"/>
    <path id="Path_38" data-name="Path 38" d="M776.182,393.994H538.687A12.9,12.9,0,0,1,525.8,381.1v-50.78a12.9,12.9,0,0,1,12.89-12.89H776.182a12.905,12.905,0,0,1,12.89,12.89V381.1A12.905,12.905,0,0,1,776.182,393.994Z" transform="translate(-256.325 -152.615)" fill="#fff"/>
    <path id="Path_39" data-name="Path 39" d="M776.072,394.275H538.578A13.3,13.3,0,0,1,525.3,380.994v-50.78a13.3,13.3,0,0,1,13.281-13.281H776.072a13.3,13.3,0,0,1,13.281,13.281v50.78A13.3,13.3,0,0,1,776.072,394.275ZM538.578,318.5a11.732,11.732,0,0,0-11.719,11.718v50.78a11.732,11.732,0,0,0,11.719,11.719H776.072a11.732,11.732,0,0,0,11.719-11.718v-50.78A11.732,11.732,0,0,0,776.072,318.5Z" transform="translate(-256.215 -152.505)" fill="#3f3d56"/>
    <path id="Path_40" data-name="Path 40" d="M755.371,384.776H575.687a12.9,12.9,0,0,1-12.89-12.89V345.323a12.9,12.9,0,0,1,12.89-12.89H755.371a12.9,12.9,0,0,1,12.89,12.89v26.562a12.9,12.9,0,0,1-12.89,12.89Z" transform="translate(-264.419 -155.896)" fill="#f2f2f2"/>
    <circle id="Ellipse_42" data-name="Ellipse 42" cx="15.415" cy="15.415" r="15.415" transform="translate(334.52 183.732)" fill="#ff6584"/>
    <path id="Path_41" data-name="Path 41" d="M750.863,385.938,729.1,367.689,707.72,349.755a3.125,3.125,0,0,0-4.026.008L682.38,367.779l-5.206,4.4-7.85-6.584-23.857-20.008a3.125,3.125,0,0,0-4.025.008l-23.779,20.1L593.51,386.112a.781.781,0,0,0,.506,1.378l49.52-.1,15.675-.03-.153.13,46.724-.09,44.582-.086a.781.781,0,0,0,.5-1.38Z" transform="translate(-271.077 -158.614)" fill="#3f3d56"/>
    <path id="Path_42" data-name="Path 42" d="M1013.918,767.5h-150a.781.781,0,0,1,0-1.562h150a.781.781,0,1,1,0,1.562Z" transform="translate(-330.125 -250.732)" fill="#ccc"/>
    <path id="Path_43" data-name="Path 43" d="M762.9,221.709a8.766,8.766,0,0,0-5.664-3.984,8.046,8.046,0,0,0-1.3-.164l-59.522-53.217a7.043,7.043,0,0,0-4.4-2.1,5.991,5.991,0,0,0-.992-.031,7.074,7.074,0,0,0-4.656,12.093l22.788,19.867,37.421,32.616a9.311,9.311,0,0,0,.274,1.82,8.8,8.8,0,0,0,7.554,6.539,8.665,8.665,0,0,0,4.727-.781,8.911,8.911,0,0,0,3.031-2.32c.086-.1.164-.2.242-.3a8.822,8.822,0,0,0,.492-10.031Z" transform="translate(-290.995 -118.655)" fill="#ffb8b8"/>
    <path id="Path_44" data-name="Path 44" d="M650.093,279.858l-.555-22.546-.469-18.71-.32-13.093-.633-25.523a7.067,7.067,0,0,0-12.273-4.1,5.408,5.408,0,0,0-.586.75,6.981,6.981,0,0,0-1.219,4.726L635.43,238.6l.7,18.71.89,23.867a9.408,9.408,0,0,0-.7,1.1,8.834,8.834,0,1,0,13.773-2.422Z" transform="translate(-279.996 -125.516)" fill="#ffb8b8"/>
    <path id="Path_45" data-name="Path 45" d="M703.89,208.992l-5.523-14.961L689.43,169.8a12.5,12.5,0,0,0-7.773-7.562c-.14-.047-.289-.094-.429-.133a12.487,12.487,0,0,0-10.343,1.422l-30.1,19.093a12.573,12.573,0,0,0-4.117,16.992,215.858,215.858,0,0,0,12.289,18.9c3.508,4.773,10.039,5.281,11.172,13.093h22.195l22.468-20.171Z" transform="translate(-280.2 -118.515)" fill="#ccc"/>
    <circle id="Ellipse_43" data-name="Ellipse 43" cx="18.102" cy="18.102" r="18.102" transform="translate(60.931 237.112)" fill="#a0616a"/>
    <path id="Path_46" data-name="Path 46" d="M326.36,416.7q.268.213.519.452a8.109,8.109,0,0,1-.326,12.1,7.592,7.592,0,0,1-.636.479l1.225,41.362a6.3,6.3,0,0,1-4.332,6.146l-.075.016-33.584,3.576a6.952,6.952,0,1,1-1.345-13.838l23.94-2.108,4.14-35.82a7.718,7.718,0,0,1-.759-.773A8.109,8.109,0,0,1,326.36,416.7Z" transform="translate(-202.886 -173.947)" fill="#a0616a"/>
    <path id="Path_47" data-name="Path 47" d="M139.328,639.414h9.037l4.3-34.853H139.326Z" transform="translate(-30.48 -132.259)" fill="#a0616a"/>
    <path id="Path_48" data-name="Path 48" d="M317.242,751.858h17.8a11.34,11.34,0,0,1,11.34,11.341v.368H317.242Z" transform="translate(-210.699 -247.653)" fill="#2f2e41"/>
    <path id="Path_49" data-name="Path 49" d="M24.366,624.8l7.764,4.623,21.525-27.747L42.2,594.849Z" transform="translate(-5.331 -130.134)" fill="#a0616a"/>
    <path id="Path_50" data-name="Path 50" d="M202.95,734.889l15.29,9.1h0a11.34,11.34,0,0,1,3.942,15.546l-.189.317L196.96,744.95Z" transform="translate(-184.385 -243.941)" fill="#2f2e41"/>
    <path id="Path_51" data-name="Path 51" d="M307.643,693.339H297.524a3.311,3.311,0,0,1-3.3-2.966l-10.2-95.886a1.106,1.106,0,0,0-2.107-.338l-18.4,40.748-32.58,53.126a3.332,3.332,0,0,1-4.163,1.3L213.758,683.6a3.318,3.318,0,0,1-1.512-4.738l29.95-50.149,9.185-42.253c-2.889-18.324,9.5-45.566,9.622-45.84l.061-.133,34.114-13.334.171.209c13.454,44.15,21.652,91.663,15.6,162.94A3.339,3.339,0,0,1,307.643,693.339Z" transform="translate(-187.627 -198.494)" fill="#2f2e41"/>
    <path id="Path_52" data-name="Path 52" d="M268.9,531.168l-.159-.334c-.076-.16-7.662-16.159-13.509-33.258a25.222,25.222,0,0,1,1.749-20.213,25.5,25.5,0,0,1,16.259-12.5h0a25.528,25.528,0,0,1,29.631,15.288c4.638,11.6,3.16,23.979,1.769,33.716l-.028.2-.177.085Z" transform="translate(-196.841 -184.712)" fill="#3f3d56"/>
    <path id="Path_53" data-name="Path 53" d="M302.075,415.779H273.33v-12.53c6.309-2.507,12.483-4.638,16.215,0a12.53,12.53,0,0,1,12.53,12.53Z" transform="translate(-201.093 -170.79)" fill="#2f2e41"/>
    <path id="Path_54" data-name="Path 54" d="M265.134,401.185c-17.184,0-21.994,21.539-21.994,33.691,0,6.777,3.065,9.2,7.881,10.021l1.7-9.071,3.984,9.461c1.353.007,2.774-.019,4.247-.047l1.351-2.781,3.012,2.731c12.063.018,21.812,1.776,21.812-10.314C287.127,422.724,282.909,401.185,265.134,401.185Z" transform="translate(-194.488 -170.937)" fill="#2f2e41"/>
    <path id="Path_55" data-name="Path 55" d="M331.642,767.5h-150a.781.781,0,1,1,0-1.562h150a.781.781,0,1,1,0,1.562Z" transform="translate(-180.864 -250.732)" fill="#ccc"/>
    <path id="Path_56" data-name="Path 56" d="M365.989,425.369H332.4a7.43,7.43,0,0,1-7.422-7.422V384.355a7.43,7.43,0,0,1,7.422-7.422h33.593a7.43,7.43,0,0,1,7.422,7.422v33.593A7.43,7.43,0,0,1,365.989,425.369Z" transform="translate(-212.391 -165.631)" fill="#fff"/>
    <path id="Path_57" data-name="Path 57" d="M365.989,425.369H332.4a7.43,7.43,0,0,1-7.422-7.422V384.355a7.43,7.43,0,0,1,7.422-7.422h33.593a7.43,7.43,0,0,1,7.422,7.422v33.593A7.43,7.43,0,0,1,365.989,425.369ZM332.4,378.5a5.866,5.866,0,0,0-5.859,5.859v33.593a5.866,5.866,0,0,0,5.859,5.859h33.593a5.866,5.866,0,0,0,5.859-5.859V384.355a5.866,5.866,0,0,0-5.859-5.859Z" transform="translate(-212.391 -165.631)" fill="#3f3d56"/>
    <path id="Path_58" data-name="Path 58" d="M363.192,415.526H341.318a2.346,2.346,0,0,1-2.344-2.344V396.777a2.346,2.346,0,0,1,2.344-2.344h6.158a2.329,2.329,0,0,1,2,1.115l1.717,2.791h12a2.346,2.346,0,0,1,2.344,2.344v12.5a2.346,2.346,0,0,1-2.344,2.344Z" transform="translate(-215.454 -169.46)" fill="#b67b46"/>
    <path id="Path_59" data-name="Path 59" d="M351.124,430.863q.164.3.3.617a8.109,8.109,0,0,1-4.994,11.022,7.581,7.581,0,0,1-.772.2l-14.921,38.6a6.3,6.3,0,0,1-6.377,3.983l-.075-.014-32.34-9.736a6.952,6.952,0,1,1,4.13-13.276l22.882,7.347,17.716-31.407a7.715,7.715,0,0,1-.4-1.007,8.109,8.109,0,0,1,14.849-6.321Z" transform="translate(-204.096 -176.509)" fill="#a0616a"/>
  </g>
</svg>
